<mxfile modified="2023-04-09T00:38:41.797Z" host="app.diagrams.net" agent="Mozilla/5.0 (Windows NT 10.0; Win64; x64) AppleWebKit/537.36 (KHTML, like Gecko) Chrome/111.0.0.0 Safari/537.36" etag="dG7CsgOLDsGkTwHFN3IL" version="21.1.2" type="github">
  <diagram id="Ht1M8jgEwFfnCIfOTk4-" name="Page-1">
    <mxGraphModel dx="1600" dy="646" grid="1" gridSize="10" guides="1" tooltips="1" connect="1" arrows="1" fold="1" page="1" pageScale="1" pageWidth="1169" pageHeight="827" math="0" shadow="0">
      <root>
        <mxCell id="0" />
        <mxCell id="1" parent="0" />
        <mxCell id="0kuYp-21WhlVyF6QQ9tV-29" style="edgeStyle=orthogonalEdgeStyle;rounded=0;orthogonalLoop=1;jettySize=auto;html=1;entryX=0.5;entryY=0;entryDx=0;entryDy=0;entryPerimeter=0;" edge="1" parent="1" target="0kuYp-21WhlVyF6QQ9tV-27">
          <mxGeometry relative="1" as="geometry">
            <mxPoint x="650" y="303.5" as="sourcePoint" />
            <Array as="points">
              <mxPoint x="650" y="280" />
              <mxPoint x="650" y="280" />
            </Array>
          </mxGeometry>
        </mxCell>
        <mxCell id="0kuYp-21WhlVyF6QQ9tV-4" value="" style="sketch=0;html=1;dashed=0;whitespace=wrap;fillColor=#2875E2;strokeColor=#ffffff;points=[[0.005,0.63,0],[0.1,0.2,0],[0.9,0.2,0],[0.5,0,0],[0.995,0.63,0],[0.72,0.99,0],[0.5,1,0],[0.28,0.99,0]];verticalLabelPosition=bottom;align=center;verticalAlign=top;shape=mxgraph.kubernetes.icon;prIcon=job" vertex="1" parent="1">
          <mxGeometry x="910" y="372.5" width="50" height="48" as="geometry" />
        </mxCell>
        <mxCell id="0kuYp-21WhlVyF6QQ9tV-6" value="cron job&amp;nbsp;" style="text;html=1;strokeColor=none;fillColor=none;align=center;verticalAlign=middle;whiteSpace=wrap;rounded=0;" vertex="1" parent="1">
          <mxGeometry x="890" y="440" width="60" height="30" as="geometry" />
        </mxCell>
        <mxCell id="0kuYp-21WhlVyF6QQ9tV-23" style="edgeStyle=orthogonalEdgeStyle;rounded=0;orthogonalLoop=1;jettySize=auto;html=1;" edge="1" parent="1" source="0kuYp-21WhlVyF6QQ9tV-8" target="0kuYp-21WhlVyF6QQ9tV-18">
          <mxGeometry relative="1" as="geometry" />
        </mxCell>
        <mxCell id="0kuYp-21WhlVyF6QQ9tV-8" value="Amazon API Gateway" style="sketch=0;outlineConnect=0;fontColor=#232F3E;gradientColor=none;strokeColor=#ffffff;fillColor=#232F3E;dashed=0;verticalLabelPosition=middle;verticalAlign=bottom;align=center;html=1;whiteSpace=wrap;fontSize=10;fontStyle=1;spacing=3;shape=mxgraph.aws4.productIcon;prIcon=mxgraph.aws4.api_gateway;" vertex="1" parent="1">
          <mxGeometry x="40" y="240" width="80" height="110" as="geometry" />
        </mxCell>
        <mxCell id="0kuYp-21WhlVyF6QQ9tV-11" value="" style="verticalLabelPosition=bottom;html=1;verticalAlign=top;strokeWidth=1;align=center;outlineConnect=0;dashed=0;outlineConnect=0;shape=mxgraph.aws3d.s3Bucket;fillColor=#4286c5;strokeColor=#57A2D8;aspect=fixed;" vertex="1" parent="1">
          <mxGeometry x="800" y="70" width="80" height="82.99" as="geometry" />
        </mxCell>
        <mxCell id="0kuYp-21WhlVyF6QQ9tV-12" value="S3" style="text;html=1;strokeColor=none;fillColor=none;align=center;verticalAlign=middle;whiteSpace=wrap;rounded=0;" vertex="1" parent="1">
          <mxGeometry x="810" y="150.5" width="60" height="30" as="geometry" />
        </mxCell>
        <mxCell id="0kuYp-21WhlVyF6QQ9tV-13" value="" style="outlineConnect=0;dashed=0;verticalLabelPosition=bottom;verticalAlign=top;align=center;html=1;shape=mxgraph.aws3.dynamo_db;fillColor=#2E73B8;gradientColor=none;" vertex="1" parent="1">
          <mxGeometry x="840" y="227" width="72" height="81" as="geometry" />
        </mxCell>
        <mxCell id="0kuYp-21WhlVyF6QQ9tV-14" value="Dynamodb" style="text;html=1;strokeColor=none;fillColor=none;align=center;verticalAlign=middle;whiteSpace=wrap;rounded=0;" vertex="1" parent="1">
          <mxGeometry x="860" y="308" width="60" height="30" as="geometry" />
        </mxCell>
        <mxCell id="0kuYp-21WhlVyF6QQ9tV-26" style="edgeStyle=orthogonalEdgeStyle;rounded=0;orthogonalLoop=1;jettySize=auto;html=1;" edge="1" parent="1" source="0kuYp-21WhlVyF6QQ9tV-15">
          <mxGeometry relative="1" as="geometry">
            <mxPoint x="550" y="286.5" as="targetPoint" />
          </mxGeometry>
        </mxCell>
        <mxCell id="0kuYp-21WhlVyF6QQ9tV-15" value="" style="outlineConnect=0;dashed=0;verticalLabelPosition=bottom;verticalAlign=top;align=center;html=1;shape=mxgraph.aws3.step_functions;fillColor=#D9A741;gradientColor=none;" vertex="1" parent="1">
          <mxGeometry x="360" y="240" width="76.5" height="93" as="geometry" />
        </mxCell>
        <mxCell id="0kuYp-21WhlVyF6QQ9tV-16" value="Step Function" style="text;html=1;strokeColor=none;fillColor=none;align=center;verticalAlign=middle;whiteSpace=wrap;rounded=0;" vertex="1" parent="1">
          <mxGeometry x="368.25" y="338" width="60" height="30" as="geometry" />
        </mxCell>
        <mxCell id="0kuYp-21WhlVyF6QQ9tV-25" style="edgeStyle=orthogonalEdgeStyle;rounded=0;orthogonalLoop=1;jettySize=auto;html=1;" edge="1" parent="1" source="0kuYp-21WhlVyF6QQ9tV-18" target="0kuYp-21WhlVyF6QQ9tV-15">
          <mxGeometry relative="1" as="geometry" />
        </mxCell>
        <mxCell id="0kuYp-21WhlVyF6QQ9tV-18" value="" style="sketch=0;points=[[0,0,0],[0.25,0,0],[0.5,0,0],[0.75,0,0],[1,0,0],[0,1,0],[0.25,1,0],[0.5,1,0],[0.75,1,0],[1,1,0],[0,0.25,0],[0,0.5,0],[0,0.75,0],[1,0.25,0],[1,0.5,0],[1,0.75,0]];outlineConnect=0;fontColor=#232F3E;gradientColor=#FF4F8B;gradientDirection=north;fillColor=#BC1356;strokeColor=#ffffff;dashed=0;verticalLabelPosition=bottom;verticalAlign=top;align=center;html=1;fontSize=12;fontStyle=0;aspect=fixed;shape=mxgraph.aws4.resourceIcon;resIcon=mxgraph.aws4.eventbridge;" vertex="1" parent="1">
          <mxGeometry x="216" y="240" width="68" height="68" as="geometry" />
        </mxCell>
        <mxCell id="0kuYp-21WhlVyF6QQ9tV-19" value="Event Bridge" style="text;html=1;strokeColor=none;fillColor=none;align=center;verticalAlign=middle;whiteSpace=wrap;rounded=0;" vertex="1" parent="1">
          <mxGeometry x="220" y="308" width="60" height="30" as="geometry" />
        </mxCell>
        <mxCell id="0kuYp-21WhlVyF6QQ9tV-34" value="" style="edgeStyle=orthogonalEdgeStyle;rounded=0;orthogonalLoop=1;jettySize=auto;html=1;" edge="1" parent="1" source="0kuYp-21WhlVyF6QQ9tV-27" target="0kuYp-21WhlVyF6QQ9tV-33">
          <mxGeometry relative="1" as="geometry" />
        </mxCell>
        <mxCell id="0kuYp-21WhlVyF6QQ9tV-27" value="" style="outlineConnect=0;dashed=0;verticalLabelPosition=bottom;verticalAlign=top;align=center;html=1;shape=mxgraph.aws3.lambda_function;fillColor=#F58534;gradientColor=none;" vertex="1" parent="1">
          <mxGeometry x="615.5" y="390" width="69" height="72" as="geometry" />
        </mxCell>
        <mxCell id="0kuYp-21WhlVyF6QQ9tV-30" value="" style="sketch=0;points=[[0,0,0],[0.25,0,0],[0.5,0,0],[0.75,0,0],[1,0,0],[0,1,0],[0.25,1,0],[0.5,1,0],[0.75,1,0],[1,1,0],[0,0.25,0],[0,0.5,0],[0,0.75,0],[1,0.25,0],[1,0.5,0],[1,0.75,0]];outlineConnect=0;fontColor=#232F3E;gradientColor=#F78E04;gradientDirection=north;fillColor=#D05C17;strokeColor=#ffffff;dashed=0;verticalLabelPosition=bottom;verticalAlign=top;align=center;html=1;fontSize=12;fontStyle=0;aspect=fixed;shape=mxgraph.aws4.resourceIcon;resIcon=mxgraph.aws4.eks_anywhere;" vertex="1" parent="1">
          <mxGeometry x="606.5" y="200" width="78" height="78" as="geometry" />
        </mxCell>
        <mxCell id="0kuYp-21WhlVyF6QQ9tV-31" value="" style="sketch=0;points=[[0,0,0],[0.25,0,0],[0.5,0,0],[0.75,0,0],[1,0,0],[0,1,0],[0.25,1,0],[0.5,1,0],[0.75,1,0],[1,1,0],[0,0.25,0],[0,0.5,0],[0,0.75,0],[1,0.25,0],[1,0.5,0],[1,0.75,0]];outlineConnect=0;fontColor=#232F3E;gradientColor=#F78E04;gradientDirection=north;fillColor=#D05C17;strokeColor=#ffffff;dashed=0;verticalLabelPosition=bottom;verticalAlign=top;align=center;html=1;fontSize=12;fontStyle=0;aspect=fixed;shape=mxgraph.aws4.resourceIcon;resIcon=mxgraph.aws4.eks;" vertex="1" parent="1">
          <mxGeometry x="640" y="630" width="78" height="78" as="geometry" />
        </mxCell>
        <mxCell id="0kuYp-21WhlVyF6QQ9tV-32" value="" style="sketch=0;points=[[0,0,0],[0.25,0,0],[0.5,0,0],[0.75,0,0],[1,0,0],[0,1,0],[0.25,1,0],[0.5,1,0],[0.75,1,0],[1,1,0],[0,0.25,0],[0,0.5,0],[0,0.75,0],[1,0.25,0],[1,0.5,0],[1,0.75,0]];outlineConnect=0;fontColor=#232F3E;gradientColor=#F78E04;gradientDirection=north;fillColor=#D05C17;strokeColor=#ffffff;dashed=0;verticalLabelPosition=bottom;verticalAlign=top;align=center;html=1;fontSize=12;fontStyle=0;aspect=fixed;shape=mxgraph.aws4.resourceIcon;resIcon=mxgraph.aws4.eks;" vertex="1" parent="1">
          <mxGeometry x="630" y="610" width="78" height="78" as="geometry" />
        </mxCell>
        <mxCell id="0kuYp-21WhlVyF6QQ9tV-33" value="" style="sketch=0;points=[[0,0,0],[0.25,0,0],[0.5,0,0],[0.75,0,0],[1,0,0],[0,1,0],[0.25,1,0],[0.5,1,0],[0.75,1,0],[1,1,0],[0,0.25,0],[0,0.5,0],[0,0.75,0],[1,0.25,0],[1,0.5,0],[1,0.75,0]];outlineConnect=0;fontColor=#232F3E;gradientColor=#F78E04;gradientDirection=north;fillColor=#D05C17;strokeColor=#ffffff;dashed=0;verticalLabelPosition=bottom;verticalAlign=top;align=center;html=1;fontSize=12;fontStyle=0;aspect=fixed;shape=mxgraph.aws4.resourceIcon;resIcon=mxgraph.aws4.eks;" vertex="1" parent="1">
          <mxGeometry x="611" y="600" width="78" height="78" as="geometry" />
        </mxCell>
      </root>
    </mxGraphModel>
  </diagram>
</mxfile>
